HIERARCHY
ROOT hip
{
  OFFSET 0 0 0
  CHANNELS 6 Xposition Yposition Zposition Zrotation Yrotation Xrotation
  JOINT abdomen
  {
    OFFSET 0 20.6881 -0.73152
    CHANNELS 3 Zrotation Xrotation Yrotation
    JOINT chest
    {
      OFFSET 0 11.7043 -0.48768
      CHANNELS 3 Zrotation Xrotation Yrotation
      JOINT neck
      {
        OFFSET 0 22.1894 -2.19456
        CHANNELS 3 Zrotation Xrotation Yrotation
        JOINT head
        {
          OFFSET -0.24384 7.07133 1.2192
          CHANNELS 3 Zrotation Xrotation Yrotation
          JOINT leftEye
          {
            OFFSET 4.14528 8.04674 8.04672
            CHANNELS 3 Zrotation Xrotation Yrotation
            End Site
            {
              OFFSET 1 0 0
            }
          }
          JOINT rightEye
          {
            OFFSET -3.6576 8.04674 8.04672
            CHANNELS 3 Zrotation Xrotation Yrotation
            End Site
            {
              OFFSET 1 0 0
            }
          }
        }
      }
      JOINT rCollar
      {
        OFFSET -2.68224 19.2634 -4.8768
        CHANNELS 3 Zrotation Xrotation Yrotation
        JOINT rShldr
        {
          OFFSET -8.77824 -1.95073 1.46304
          CHANNELS 3 Zrotation Xrotation Yrotation
          JOINT rForeArm
          {
            OFFSET -28.1742 -1.7115 0.48768
            CHANNELS 3 Zrotation Xrotation Yrotation
            JOINT rHand
            {
              OFFSET -22.5879 0.773209 7.07136
              CHANNELS 3 Zrotation Xrotation Yrotation
              JOINT rThumb1
              {
                OFFSET -1.2192 -0.487915 3.41376
                CHANNELS 3 Zrotation Xrotation Yrotation
                JOINT rThumb2
                {
                  OFFSET -3.37035 -0.52449 3.41376
                  CHANNELS 3 Zrotation Xrotation Yrotation
                  End Site
                  {
                    OFFSET -1.78271 -1.18214 1.43049
                  }
                }
              }
              JOINT rIndex1
              {
                OFFSET -7.75947 0.938293 5.60832
                CHANNELS 3 Zrotation Xrotation Yrotation
                JOINT rIndex2
                {
                  OFFSET -2.54057 -0.884171 1.56538
                  CHANNELS 3 Zrotation Xrotation Yrotation
                  End Site
                  {
                    OFFSET -1.62519 -0.234802 1.16502
                  }
                }
              }
              JOINT rMid1
              {
                OFFSET -8.24714 1.18213 3.41376
                CHANNELS 3 Zrotation Xrotation Yrotation
                JOINT rMid2
                {
                  OFFSET -3.10165 -0.590103 1.0647
                  CHANNELS 3 Zrotation Xrotation Yrotation
                  End Site
                  {
                    OFFSET -2.48547 -0.328903 0.83742
                  }
                }
              }
              JOINT rRing1
              {
                OFFSET -8.82822 0.546677 1.51678
                CHANNELS 3 Zrotation Xrotation Yrotation
                JOINT rRing2
                {
                  OFFSET -2.60934 -0.819778 -0.0198488
                  CHANNELS 3 Zrotation Xrotation Yrotation
                  End Site
                  {
                    OFFSET -2.33842 -0.294052 0.168128
                  }
                }
              }
              JOINT rPinky1
              {
                OFFSET -8.27202 -0.0477905 -0.4584
                CHANNELS 3 Zrotation Xrotation Yrotation
                JOINT rPinky2
                {
                  OFFSET -1.82734 -0.647385 -0.700984
                  CHANNELS 3 Zrotation Xrotation Yrotation
                  End Site
                  {
                    OFFSET -1.69225 -0.51767 -0.607171
                  }
                }
              }
            }
          }
        }
      }
      JOINT lCollar
      {
        OFFSET 2.68224 19.2634 -4.8768
        CHANNELS 3 Zrotation Xrotation Yrotation
        JOINT lShldr
        {
          OFFSET 8.77824 -1.95073 1.46304
          CHANNELS 3 Zrotation Xrotation Yrotation
          JOINT lForeArm
          {
            OFFSET 28.1742 -1.7115 0.48768
            CHANNELS 3 Zrotation Xrotation Yrotation
            JOINT lHand
            {
              OFFSET 22.5879 0.773209 7.07136
              CHANNELS 3 Zrotation Xrotation Yrotation
              JOINT lThumb1
              {
                OFFSET 1.2192 -0.487915 3.41376
                CHANNELS 3 Zrotation Xrotation Yrotation
                JOINT lThumb2
                {
                  OFFSET 3.37035 -0.52449 3.41376
                  CHANNELS 3 Zrotation Xrotation Yrotation
                  End Site
                  {
                    OFFSET 1.78271 -1.18214 1.43049
                  }
                }
              }
              JOINT lIndex1
              {
                OFFSET 7.75947 0.938293 5.60832
                CHANNELS 3 Zrotation Xrotation Yrotation
                JOINT lIndex2
                {
                  OFFSET 2.54057 -0.884171 1.56538
                  CHANNELS 3 Zrotation Xrotation Yrotation
                  End Site
                  {
                    OFFSET 1.62519 -0.234802 1.16502
                  }
                }
              }
              JOINT lMid1
              {
                OFFSET 8.24714 1.18213 3.41376
                CHANNELS 3 Zrotation Xrotation Yrotation
                JOINT lMid2
                {
                  OFFSET 3.10165 -0.590103 1.0647
                  CHANNELS 3 Zrotation Xrotation Yrotation
                  End Site
                  {
                    OFFSET 2.48547 -0.328903 0.83742
                  }
                }
              }
              JOINT lRing1
              {
                OFFSET 8.82822 0.546677 1.51678
                CHANNELS 3 Zrotation Xrotation Yrotation
                JOINT lRing2
                {
                  OFFSET 2.60934 -0.819778 -0.0198488
                  CHANNELS 3 Zrotation Xrotation Yrotation
                  End Site
                  {
                    OFFSET 2.33842 -0.294052 0.168128
                  }
                }
              }
              JOINT lPinky1
              {
                OFFSET 8.27202 -0.0477905 -0.4584
                CHANNELS 3 Zrotation Xrotation Yrotation
                JOINT lPinky2
                {
                  OFFSET 1.82734 -0.647385 -0.700984
                  CHANNELS 3 Zrotation Xrotation Yrotation
                  End Site
                  {
                    OFFSET 1.69225 -0.51767 -0.607171
                  }
                }
              }
            }
          }
        }
      }
    }
  }
  JOINT rButtock
  {
    OFFSET -8.77824 4.35084 1.2192
    CHANNELS 3 Zrotation Xrotation Yrotation
    JOINT rThigh
    {
      OFFSET 0 -1.70687 -2.19456
      CHANNELS 3 Zrotation Xrotation Yrotation
      JOINT rShin
      {
        OFFSET 0 -36.8199 0.73152
        CHANNELS 3 Zrotation Xrotation Yrotation
        JOINT rFoot
        {
          OFFSET 0.73152 -45.1104 -5.12064
          CHANNELS 3 Zrotation Xrotation Yrotation
          End Site
          {
            OFFSET -1.1221 -3.69964 12.103
          }
        }
      }
    }
  }
  JOINT lButtock
  {
    OFFSET 8.77824 4.35084 1.2192
    CHANNELS 3 Zrotation Xrotation Yrotation
    JOINT lThigh
    {
      OFFSET 0 -1.70687 -2.19456
      CHANNELS 3 Zrotation Xrotation Yrotation
      JOINT lShin
      {
        OFFSET 0 -36.8199 0.73152
        CHANNELS 3 Zrotation Xrotation Yrotation
        JOINT lFoot
        {
          OFFSET -0.73152 -45.1104 -5.12064
          CHANNELS 3 Zrotation Xrotation Yrotation
          End Site
          {
            OFFSET 1.1221 -3.69964 12.103
          }
        }
      }
    }
  }
}
MOTION
Frames:	5
Frame Time:	0.00833333
-9.46893 84.9057 163.725 0.0 0.0 0.0 -0.143206 -0.00270227 -0.00414754 -0.0395939 -0.00448402 -0.0068603 -1.33672e-15 0.0 -2.32951e-17 -4.03471e-15 3.18055e-15 -6.83322e-17 -0.0 0.0 0.0 -0.0 0.0 0.0 -5.97762e-16 -1.10652e-17 1.49089e-16 -1.23443e-14 -7.45443e-16 5.96354e-16 -2.43412e-13 6.52014e-14 0.0 -2.82305e-12 -1.18202e-13 -6.67917e-14 -6.65446e-12 -1.05788e-13 -1.17681e-13 -1.14997e-11 -1.74931e-13 -2.09917e-13 -6.65133e-12 -1.05753e-13 -1.30403e-13 7.73091 5.47488 0.417314 -6.65551e-12 -1.0635e-13 -1.20861e-13 2.90554 0.965183 0.102902 -6.65451e-12 -1.06052e-13 -1.22451e-13 10.2786 0.731801 0.0259123 -6.65889e-12 -1.0297e-13 -1.145e-13 2.22167 -0.733487 -0.20892 -6.9438e-16 -1.10652e-17 -1.49089e-16 -1.62841e-14 -4.47265e-16 -1.19271e-15 -2.49425e-13 -7.93151e-14 -3.18055e-15 -2.81934e-12 4.46769e-14 -4.45278e-14 -6.65545e-12 -7.09382e-14 -1.24042e-13 -1.14826e-11 -1.17681e-13 -2.06736e-13 -6.65889e-12 -7.03698e-14 -1.11319e-13 -7.73091 5.47488 -0.417314 -6.65427e-12 -7.13637e-14 -1.27222e-13 -2.90554 0.965183 -0.102902 -6.66542e-12 -7.03698e-14 -1.20861e-13 -10.2786 0.731801 -0.0259123 -6.64955e-12 -6.71892e-14 -1.27222e-13 -2.22167 -0.733487 0.20892 -2.03217e-16 0.0 -3.88251e-19 0.331194 -2.90287 -0.0343691 -0.0059982 -0.292938 -0.0527672 -0.439346 3.19624 0.113621 2.03217e-16 0.0 3.88251e-19 -0.551123 -3.50684 0.0483559 0.00427679 0.801046 0.0368162 0.44327 2.70626 -0.104408
-11.53 83.6443 157.528 174.167 -36.7855 -164.39 -1.15228 -2.92314 -0.388635 0.677618 -0.714189 -0.124365 -2.05225 2.99976 -1.77941 5.20957 0.364122 -4.41076 -0.0 0.0 0.0 -0.0 0.0 0.0 -1.00751e-13 2.3902e-13 -2.67207e-13 21.3059 10.1325 -2.53173 -3.89559 -1.70986 6.14861 0.014166 -2.65583 -0.371831 1.10892e-09 5.41556e-10 -1.12174e-09 1.92254e-09 9.31926e-10 -1.93292e-09 1.10893e-09 5.41555e-10 -1.12175e-09 7.73091 5.47488 0.417314 1.10892e-09 5.41555e-10 -1.12174e-09 2.90554 0.965183 0.102902 1.10892e-09 5.41555e-10 -1.12174e-09 10.2786 0.731801 0.0259123 1.10892e-09 5.41557e-10 -1.12174e-09 2.22167 -0.733487 -0.20892 -1.00805e-13 2.3902e-13 -2.67521e-13 -21.4344 4.54514 2.15323 5.08712 -2.51517 -7.71202 -0.140946 8.34737 -1.12873 1.51507e-09 1.30618e-09 1.16287e-09 2.63999e-09 2.25918e-09 1.96836e-09 1.51507e-09 1.30618e-09 1.16289e-09 -7.73091 5.47488 -0.417314 1.51507e-09 1.30618e-09 1.16287e-09 -2.90554 0.965183 -0.102902 1.51506e-09 1.30618e-09 1.16287e-09 -10.2786 0.731801 -0.0259123 1.51507e-09 1.30618e-09 1.16287e-09 -2.22167 -0.733487 0.20892 -2.03217e-16 0.0 -3.88251e-19 -1.34371 -12.6596 7.82263 0.105185 6.20614 0.294507 -2.55549 -6.38228 -10.5332 2.03217e-16 0.0 3.88251e-19 -2.29825 -2.9329 -3.85987 -0.0307755 3.97093 -0.131397 0.947814 -2.78527 5.7064
-11.6842 83.5312 157.025 174.741 -36.3185 -164.464 -2.29107 -5.99995 -0.794515 1.43509 -1.46695 -0.246428 -4.01181 6.15358 -3.68246 10.7803 0.734338 -9.08097 -0.0 0.0 0.0 -0.0 0.0 0.0 -2.13685e-13 5.08723e-13 -5.71788e-13 44.8692 20.7926 -5.48232 -7.63058 -3.4606 12.6874 -0.0087045 -5.49584 -0.772196 2.36991e-09 1.13745e-09 -2.37903e-09 4.10854e-09 1.95718e-09 -4.09933e-09 2.36992e-09 1.13744e-09 -2.37903e-09 7.73091 5.47488 0.417314 2.36991e-09 1.13744e-09 -2.37903e-09 2.90554 0.965183 0.102902 2.36991e-09 1.13744e-09 -2.37903e-09 10.2786 0.731801 0.0259123 2.36991e-09 1.13745e-09 -2.37902e-09 2.22167 -0.733487 -0.20892 -2.13691e-13 5.08724e-13 -5.72121e-13 -44.4475 9.34102 4.46056 9.73458 -5.02128 -15.9103 0.0830838 17.1871 -2.40818 3.22371e-09 2.77761e-09 2.47712e-09 5.61727e-09 4.80423e-09 4.19327e-09 3.2237e-09 2.77761e-09 2.47714e-09 -7.73091 5.47488 -0.417314 3.22371e-09 2.7776e-09 2.47712e-09 -2.90554 0.965183 -0.102902 3.2237e-09 2.7776e-09 2.47712e-09 -10.2786 0.731801 -0.0259123 3.22371e-09 2.7776e-09 2.47711e-09 -2.22167 -0.733487 0.20892 -2.03217e-16 0.0 -3.88251e-19 -0.0724866 -22.3121 17.102 0.13688 13.0629 0.681074 -8.76983 -15.7056 -22.5316 2.03217e-16 0.0 3.88251e-19 -4.0916 -2.2959 -8.04001 -0.0472415 7.24501 -0.311172 2.70878 -8.48412 12.0063
-11.8941 83.5452 156.184 175.121 -36.7661 -165.165 -3.28919 -8.76242 -1.16975 2.1033 -2.13356 -0.359595 -5.5928 8.96436 -5.39702 15.7952 1.06652 -13.2343 -0.0 0.0 0.0 -0.0 0.0 0.0 -3.01057e-13 7.17082e-13 -8.0192e-13 66.9508 30.1409 -8.65394 -10.6036 -4.89374 18.5075 -0.0617658 -7.96615 -1.12516 3.34007e-09 1.62488e-09 -3.36499e-09 5.79063e-09 2.79613e-09 -5.79835e-09 3.34008e-09 1.62488e-09 -3.36499e-09 7.73091 5.47488 0.417314 3.34007e-09 1.62488e-09 -3.36498e-09 2.90554 0.965183 0.102902 3.34007e-09 1.62488e-09 -3.36499e-09 10.2786 0.731801 0.0259123 3.34007e-09 1.62488e-09 -3.36498e-09 2.22167 -0.733487 -0.20892 -3.01025e-13 7.17083e-13 -8.02266e-13 -65.3506 13.5573 6.62475 13.2788 -6.99988 -23.2974 0.649851 25.0011 -3.69717 4.55852e-09 3.91868e-09 3.48886e-09 7.94292e-09 6.77776e-09 5.90549e-09 4.55851e-09 3.91868e-09 3.48888e-09 -7.73091 5.47488 -0.417314 4.55852e-09 3.91868e-09 3.48886e-09 -2.90554 0.965183 -0.102902 4.55851e-09 3.91868e-09 3.48886e-09 -10.2786 0.731801 -0.0259123 4.55852e-09 3.91868e-09 3.48885e-09 -2.22167 -0.733487 0.20892 -2.03217e-16 0.0 -3.88251e-19 4.09609 -29.6678 26.6787 0.079839 19.2016 1.04184 -17.5129 -21.8051 -34.3899 2.03217e-16 0.0 3.88251e-19 -5.55814 -1.76772 -11.6666 -0.0442733 10.3104 -0.474534 5.31458 -13.1731 17.7906
-12.0467 83.5056 155.326 175.72 -36.9067 -165.922 -3.85406 -10.7404 -1.4573 2.55432 -2.58486 -0.45032 -6.62768 10.9511 -6.58462 19.3091 1.32719 -16.0939 -0.0 0.0 0.0 -0.0 0.0 0.0 -3.24523e-13 7.72079e-13 -8.45928e-13 83.0737 36.4508 -11.3769 -12.4427 -5.76397 22.4701 -0.11231 -9.51362 -1.3496 3.58317e-09 1.84118e-09 -3.67262e-09 6.21294e-09 3.16929e-09 -6.32894e-09 3.58318e-09 1.84117e-09 -3.67262e-09 7.73091 5.47488 0.417314 3.58317e-09 1.84117e-09 -3.67262e-09 2.90554 0.965183 0.102902 3.58317e-09 1.84117e-09 -3.67262e-09 10.2786 0.731801 0.0259123 3.58316e-09 1.84117e-09 -3.67261e-09 2.22167 -0.733487 -0.20892 -3.24481e-13 7.72081e-13 -8.46276e-13 -80.2373 16.397 8.27426 15.4417 -8.17872 -28.5027 1.27524 30.2906 -4.70897 4.95875e-09 4.23389e-09 3.74436e-09 8.63948e-09 7.32248e-09 6.336e-09 4.95875e-09 4.23389e-09 3.74438e-09 -7.73091 5.47488 -0.417314 4.95875e-09 4.23388e-09 3.74436e-09 -2.90554 0.965183 -0.102902 4.95874e-09 4.23388e-09 3.74436e-09 -10.2786 0.731801 -0.0259123 4.95876e-09 4.23388e-09 3.74435e-09 -2.22167 -0.733487 0.20892 -2.03217e-16 0.0 -3.88251e-19 8.83923 -33.7391 33.973 -0.0147763 23.5477 1.28579 -24.4467 -23.75 -42.9868 2.03217e-16 0.0 3.88251e-19 -6.39116 -1.51356 -13.9151 -0.0306568 12.8542 -0.59132 7.56665 -15.9594 21.7745
